<svg xmlns="http://www.w3.org/2000/svg" viewBox="0 0 96 96" width="96" height="96">
  <defs>
    
  <radialGradient id="baseGrad" cx="50%" cy="35%" r="65%">
    <stop offset="0%" stop-color="#3a4250"/>
    <stop offset="60%" stop-color="#252a36"/>
    <stop offset="100%" stop-color="#13161e"/>
  </radialGradient>
  <radialGradient id="baseShadow" cx="50%" cy="50%" r="55%">
    <stop offset="0%" stop-color="#000" stop-opacity="0.55"/>
    <stop offset="100%" stop-color="#000" stop-opacity="0"/>
  </radialGradient>
    <radialGradient id="emberCore" cx="50%" cy="45%" r="55%">
      <stop offset="0%" stop-color="#fff4cc"/>
      <stop offset="35%" stop-color="#ffb35a"/>
      <stop offset="80%" stop-color="#c44a3a"/>
      <stop offset="100%" stop-color="#5a1810"/>
    </radialGradient>
    <linearGradient id="brass" x1="0" y1="0" x2="0" y2="1">
      <stop offset="0%" stop-color="#d8a263"/>
      <stop offset="100%" stop-color="#7a4828"/>
    </linearGradient>
  </defs>
  
  <ellipse cx="48" cy="86" rx="36" ry="6" fill="url(#baseShadow)"/>
  <polygon points="61.01,18.59 79.41,36.99 79.41,63.01 61.01,81.41 34.99,81.41 16.59,63.01 16.59,36.99 34.99,18.59" fill="url(#baseGrad)" stroke="#0c0e14" stroke-width="2"/>
  <polygon points="61.01,18.59 79.41,36.99 79.41,63.01 61.01,81.41 34.99,81.41 16.59,63.01 16.59,36.99 34.99,18.59" fill="none" stroke="#5a6478" stroke-width="0.8" opacity="0.55"/>
  <!-- brass collar -->
  <circle cx="48" cy="48" r="24" fill="url(#brass)" stroke="#3c2616" stroke-width="1.5"/>
  <circle cx="48" cy="48" r="24" fill="none" stroke="#f0c890" stroke-width="0.8" opacity="0.5"/>
  <!-- 4 vent spikes -->
  <g fill="#3c2616" stroke="#1c0c08" stroke-width="0.6">
    <polygon points="48,18 50,30 46,30"/>
    <polygon points="48,78 50,66 46,66"/>
    <polygon points="18,48 30,46 30,50"/>
    <polygon points="78,48 66,46 66,50"/>
  </g>
  <!-- glowing ember core -->
  <circle cx="48" cy="48" r="14" fill="url(#emberCore)"/>
  <!-- inner flicker highlight -->
  <circle cx="44" cy="44" r="4" fill="#fff4cc" opacity="0.85"/>
  <!-- outer rim glow -->
  <circle cx="48" cy="48" r="26" fill="none" stroke="#ff7a3a" stroke-width="0.8" opacity="0.35"/>
</svg>